<svg width="267" height="393" viewBox="0 0 267 393" fill="none" xmlns="http://www.w3.org/2000/svg">
<path d="M171.992 190.015C224.464 190.015 267 147.479 267 95.0075C267 42.5363 224.464 0 171.992 0C119.521 0 76.985 42.5363 76.985 95.0075C76.985 147.479 119.521 190.015 171.992 190.015Z" fill="#29ABE2"/>
<path opacity="0.2" d="M176.532 270.762C156.629 301.859 122.159 322.253 82.3217 322.253C20.1896 322.253 -30.3196 271.743 -30.3196 209.581C-30.3196 159.93 1.91187 117.732 46.5636 102.736C46.4102 100.19 46.3182 97.6143 46.3182 95.0075C46.3182 70.259 53.4944 47.1664 65.9146 27.6926C-31.6996 35.6355 -108 113.899 -108 209.581C-108 310.599 -23.0207 392.174 82.3217 392.174C164.878 392.174 234.8 341.665 261.02 270.762H176.532Z" fill="black"/>
</svg>
