<svg width="346" height="393" viewBox="0 0 346 393" fill="none" xmlns="http://www.w3.org/2000/svg">
<path d="M279.992 190.015C332.464 190.015 375 147.479 375 95.0075C375 42.5363 332.464 0 279.992 0C227.521 0 184.985 42.5363 184.985 95.0075C184.985 147.479 227.521 190.015 279.992 190.015Z" fill="#29ABE2"/>
<path opacity="0.2" d="M284.532 270.762C264.629 301.859 230.159 322.253 190.322 322.253C128.19 322.253 77.6804 271.743 77.6804 209.581C77.6804 159.93 109.912 117.732 154.564 102.736C154.41 100.19 154.318 97.6142 154.318 95.0074C154.318 70.2589 161.494 47.1663 173.915 27.6925C76.3004 35.6354 0 113.898 0 209.581C0 310.599 84.9793 392.174 190.322 392.174C272.878 392.174 342.8 341.665 369.02 270.762H284.532Z" fill="black"/>
</svg>
