<svg width="158" height="33" viewBox="0 0 158 33" fill="none" xmlns="http://www.w3.org/2000/svg">
<path d="M83.8261 7.86902C85.4669 7.86902 86.8258 6.54058 86.8258 4.8667C86.8258 3.22584 85.4644 1.86692 83.8261 1.86692C82.1496 1.86692 80.8237 3.22838 80.8237 4.8667C80.8237 6.54058 82.1496 7.86902 83.8261 7.86902Z" fill="#29ABE2"/>
<path d="M90.3641 7.86901C92.005 7.86901 93.3639 6.54057 93.3639 4.86669C93.3639 3.22583 92.0024 1.86692 90.3641 1.86692C88.6877 1.86692 87.3618 3.22837 87.3618 4.86669C87.3592 6.54057 88.6877 7.86901 90.3641 7.86901Z" fill="#29ABE2"/>
<path d="M23.1905 15.738C27.5364 15.738 31.0595 12.2149 31.0595 7.86901C31.0595 3.52308 27.5364 0 23.1905 0C18.8445 0 15.3215 3.52308 15.3215 7.86901C15.3215 12.2149 18.8445 15.738 23.1905 15.738Z" fill="#29ABE2"/>
<path d="M23.5664 22.4259C21.9179 25.0015 19.0629 26.6906 15.7634 26.6906C10.6173 26.6906 6.43389 22.5072 6.43389 17.3586C6.43389 13.2462 9.10347 9.75117 12.8018 8.5091C12.7891 8.29827 12.7814 8.08491 12.7814 7.86901C12.7814 5.81921 13.3758 3.90656 14.4045 2.29364C6.31959 2.95151 0 9.43367 0 17.3586C0 25.7254 7.03842 32.4819 15.7634 32.4819C22.6012 32.4819 28.3924 28.2985 30.5642 22.4259H23.5664Z" fill="black"/>
<path d="M44.034 9.47685C37.4401 9.47685 32.0908 14.6255 32.0908 20.9781C32.0908 27.3333 37.4401 32.4819 44.034 32.4819C46.6477 32.4819 48.982 31.1535 50.3485 29.1418V31.8367H55.9772V20.9781C55.9772 14.6255 50.6304 9.47685 44.034 9.47685ZM44.1559 27.0107C40.8183 27.0107 38.1233 24.3182 38.1233 20.9781C38.1233 17.6405 40.8183 14.9481 44.1559 14.9481C47.4935 14.9481 50.1885 17.6405 50.1885 20.9781C50.1885 24.3182 47.4935 27.0107 44.1559 27.0107Z" fill="black"/>
<path d="M74.9182 10.122L68.9262 23.795L62.9343 10.122H56.381L66.5132 31.8367H71.3393L81.474 10.122H74.9182Z" fill="black"/>
<path d="M90.0796 10.122H84.047V31.8393H90.0796V10.122Z" fill="black"/>
<path d="M117.385 20.9781C117.385 14.6255 111.995 9.47685 105.32 9.47685C98.6446 9.47685 93.2546 14.6255 93.2546 20.9781C93.2546 27.3333 98.6446 32.4819 105.32 32.4819C110.628 32.4819 115.132 29.223 116.74 24.6789H110.065C108.98 26.0861 107.25 27.0107 105.32 27.0107C102.706 27.0107 100.534 25.3622 99.6504 23.0711H117.184C117.304 22.3878 117.385 21.702 117.385 20.9781ZM99.6504 18.8877C100.534 16.5966 102.706 14.9481 105.32 14.9481C107.893 14.9481 110.105 16.5966 110.989 18.8877H99.6504Z" fill="black"/>
<path d="M131.378 9.47685C124.703 9.47685 120.118 14.6255 120.118 20.9781V31.8367H126.151V20.9781C126.151 17.6405 128.04 14.9481 131.378 14.9481C134.716 14.9481 136.605 17.6405 136.605 20.9781V31.8367H142.638V20.9781C142.638 14.6255 138.053 9.47685 131.378 9.47685Z" fill="black"/>
<path d="M158 15.2681V10.122H151.967V2.88294H145.935V20.9781C145.935 27.3333 150.52 32.4819 157.195 32.4819H158V27.0107C154.662 27.0107 151.967 24.3182 151.967 20.9781V15.2681H158Z" fill="black"/>
</svg>
