<svg width="137" height="29" viewBox="0 0 137 29" fill="none" xmlns="http://www.w3.org/2000/svg">
<path d="M72.6846 6.823C74.1074 6.823 75.2857 5.67112 75.2857 4.21972C75.2857 2.79695 74.1052 1.61865 72.6846 1.61865C71.231 1.61865 70.0814 2.79915 70.0814 4.21972C70.0814 5.67112 71.231 6.823 72.6846 6.823Z" fill="#29ABE2"/>
<path d="M78.3537 6.823C79.7764 6.823 80.9547 5.67112 80.9547 4.21972C80.9547 2.79695 79.7742 1.61865 78.3537 1.61865C76.9001 1.61865 75.7504 2.79915 75.7504 4.21972C75.7482 5.67112 76.9001 6.823 78.3537 6.823Z" fill="#29ABE2"/>
<path d="M20.1082 13.6463C23.8765 13.6463 26.9313 10.5914 26.9313 6.82313C26.9313 3.05482 23.8765 0 20.1082 0C16.3399 0 13.2851 3.05482 13.2851 6.82313C13.2851 10.5914 16.3399 13.6463 20.1082 13.6463Z" fill="#29ABE2"/>
<path d="M20.4342 19.4452C19.0048 21.6785 16.5292 23.1431 13.6683 23.1431C9.20616 23.1431 5.57876 19.5157 5.57876 15.0514C5.57876 11.4856 7.89351 8.45511 11.1003 7.37812C11.0892 7.19532 11.0826 7.01031 11.0826 6.82311C11.0826 5.04575 11.598 3.38731 12.49 1.98877C5.47965 2.5592 0 8.1798 0 15.0514C0 22.3062 6.10294 28.1647 13.6683 28.1647C19.5972 28.1647 24.6188 24.5373 26.5018 19.4452H20.4342Z" fill="white"/>
<path d="M38.1814 8.21704C32.4638 8.21704 27.8255 12.6814 27.8255 18.1896C27.8255 23.7001 32.4638 28.1645 38.1814 28.1645C40.4477 28.1645 42.4717 27.0126 43.6566 25.2683V27.605H48.5372V18.1896C48.5372 12.6814 43.9011 8.21704 38.1814 8.21704ZM38.2871 23.4204C35.3931 23.4204 33.0563 21.0858 33.0563 18.1896C33.0563 15.2957 35.3931 12.9611 38.2871 12.9611C41.1811 12.9611 43.5178 15.2957 43.5178 18.1896C43.5178 21.0858 41.1811 23.4204 38.2871 23.4204Z" fill="white"/>
<path d="M64.9607 8.77661L59.7652 20.6323L54.5696 8.77661H48.8874L57.6729 27.6052H61.8575L70.6452 8.77661H64.9607Z" fill="white"/>
<path d="M78.107 8.77661H72.8762V27.6074H78.107V8.77661Z" fill="white"/>
<path d="M101.783 18.1896C101.783 12.6814 97.1096 8.21704 91.3216 8.21704C85.5336 8.21704 80.86 12.6814 80.86 18.1896C80.86 23.7001 85.5336 28.1645 91.3216 28.1645C95.9247 28.1645 99.8296 25.3387 101.224 21.3986H95.4357C94.4953 22.6187 92.9954 23.4204 91.3216 23.4204C89.0553 23.4204 87.1722 21.991 86.4057 20.0045H101.609C101.713 19.412 101.783 18.8173 101.783 18.1896ZM86.4057 16.3771C87.1722 14.3905 89.0553 12.9611 91.3216 12.9611C93.5526 12.9611 95.471 14.3905 96.2374 16.3771H86.4057Z" fill="white"/>
<path d="M113.916 8.21704C108.128 8.21704 104.153 12.6814 104.153 18.1896V27.605H109.384V18.1896C109.384 15.2957 111.022 12.9611 113.916 12.9611C116.81 12.9611 118.449 15.2957 118.449 18.1896V27.605H123.68V18.1896C123.68 12.6814 119.704 8.21704 113.916 8.21704Z" fill="white"/>
<path d="M137 13.2388V8.77668H131.769V2.49976H126.538V18.1899C126.538 23.7003 130.514 28.1647 136.302 28.1647H137V23.4206C134.106 23.4206 131.769 21.0861 131.769 18.1899V13.2388H137Z" fill="white"/>
</svg>
